<svg id="Layer_1" data-name="Layer 1" xmlns="http://www.w3.org/2000/svg" viewBox="0 0 9216 677.86"><defs><style>.cls-1{fill:#b3dd18;}</style></defs><title>Selected projects text white 1</title><path class="cls-1" d="M285.5,646.92A467.59,467.59,0,0,1,218,641.85a584.54,584.54,0,0,1-68.54-14.29A601.38,601.38,0,0,1,83.86,605.7a423.5,423.5,0,0,1-58.77-28.76L18.51,573l77.08-156.9,7.79,4.9a479.44,479.44,0,0,0,59.49,31.78,423.05,423.05,0,0,0,59.08,22,232.33,232.33,0,0,0,66,9.61c19.81,0,28.47-3.05,32.23-5.61,4.66-3.17,6.73-6.8,6.73-11.8,0-5.85-2.36-10.55-7.41-14.8-6.12-5.13-14.91-9.81-26.11-13.89-11.87-4.31-25.76-8.71-41.27-13.07-15.93-4.47-33-9.82-50.62-15.9-26.28-8.93-49.31-18.75-68.42-29.16-19.5-10.6-35.82-22.86-48.51-36.44a133,133,0,0,1-28.71-47.28c-6.09-17.38-9.17-37.55-9.17-59.94,0-33.72,6.27-63.93,18.63-89.79a186,186,0,0,1,50.76-65,226.3,226.3,0,0,1,72.7-39.16,276.35,276.35,0,0,1,85.89-13.26,326.34,326.34,0,0,1,64.65,6.38,515.76,515.76,0,0,1,60.25,16c19.3,6.44,37.55,13.52,54.26,21S485.72,87.38,499,94l7.54,3.77L428.88,246.53,421.34,242a446.83,446.83,0,0,0-50.46-26,464.61,464.61,0,0,0-49.31-18.34,173.67,173.67,0,0,0-51.82-8.32c-13,0-23.26,1.92-30.6,5.71-5.78,3-8.36,7.62-8.36,15,0,5.57,1.6,9.77,5,13.2,4.23,4.23,10.63,8.25,19,12a261.79,261.79,0,0,0,33.33,11.63c13.51,3.87,29.07,8.63,46.28,14.18a613.53,613.53,0,0,1,74.26,27.7c22.44,10.23,41.95,22.52,58,36.54a144.65,144.65,0,0,1,37.81,52.3c8.7,20.3,13.11,45.11,13.11,73.73,0,36.58-6.89,67.89-20.48,93.06s-31.76,45.5-54.06,60.55c-22,14.87-47.2,25.74-74.85,32.29A359.79,359.79,0,0,1,285.5,646.92ZM40.18,566.53A413.2,413.2,0,0,0,90,590.31a584.4,584.4,0,0,0,63.76,21.26,568.41,568.41,0,0,0,66.59,13.89,451.2,451.2,0,0,0,65.12,4.89A343.14,343.14,0,0,0,364.42,621c25.7-6.09,49-16.14,69.39-29.89,20.06-13.54,36.46-31.95,48.75-54.69S501,485.06,501,451.26c0-26.37-4-49-11.77-67.2a128.13,128.13,0,0,0-33.49-46.35c-14.81-13-33-24.37-53.94-33.93a598.1,598.1,0,0,0-72.36-27c-17.15-5.52-32.54-10.23-45.86-14a278.17,278.17,0,0,1-35.47-12.41c-10.43-4.6-18.31-9.64-24.07-15.4-6.56-6.56-9.89-14.95-9.89-24.93,0-13.61,6-23.9,17.33-29.75,9.72-5,22.58-7.55,38.21-7.55a190.13,190.13,0,0,1,56.78,9.08,481.4,481.4,0,0,1,51,19,466.25,466.25,0,0,1,44.71,22.55L484,105.09c-11.16-5.45-23.53-11.24-36.9-17.26a564.16,564.16,0,0,0-52.69-20.42,499.32,499.32,0,0,0-58.3-15.49,309.68,309.68,0,0,0-61.36-6.05A259.8,259.8,0,0,0,194,58.31a209.68,209.68,0,0,0-67.4,36.28A169.54,169.54,0,0,0,80.33,153.9c-11.29,23.62-17,51.42-17,82.64,0,20.52,2.77,38.84,8.24,54.46a116.43,116.43,0,0,0,25.17,41.42c11.48,12.29,26.4,23.45,44.33,33.21,18.28,10,40.44,19.39,65.86,28,17.38,6,34.1,11.24,49.73,15.62,15.9,4.47,30.19,9,42.46,13.45,13.21,4.82,23.38,10.31,31.1,16.78,8.84,7.44,13.33,16.69,13.33,27.49,0,10.46-4.84,19.29-14,25.51-8.4,5.7-22,8.48-41.55,8.48a249.05,249.05,0,0,1-70.75-10.29A439.32,439.32,0,0,1,156,467.89a495.67,495.67,0,0,1-53.58-28Z"/><path class="cls-1" d="M1049.86,639.46H613.78V34.26h428.61V191.78H792V258.1h213.89V405.67H792v76.27h257.83ZM630.37,622.88h402.91V498.52H775.45V389.09H989.33V274.68H775.45V175.2h250.37V50.84H630.37Z"/><path class="cls-1" d="M1595.34,639.46H1150.16V34.26H1328.4V481.94h266.95Zm-428.61-16.58h412V498.52H1311.82V50.84H1166.74Z"/><path class="cls-1" d="M2112.66,639.46H1676.58V34.26h428.61V191.78H1854.83V258.1h213.89V405.67H1854.83v76.27h257.83Zm-419.49-16.58h402.91V498.52H1838.25V389.09h213.89V274.68H1838.25V175.2h250.37V50.84H1693.16Z"/><path class="cls-1" d="M2475.77,644.43c-44.72,0-86.23-9.06-123.39-26.93a313.28,313.28,0,0,1-96.21-71.11A324.33,324.33,0,0,1,2193.64,446a310.23,310.23,0,0,1-22.13-114.13,301.83,301.83,0,0,1,81.83-205.48c26.58-28.28,59.24-51.49,97.07-69s81.81-26.47,130.32-26.47c58.09,0,109.24,12.21,152,36.3s75.41,56.69,96.53,96.62l3.4,6.42-138.15,98.28-3.84-10c-5.11-13.26-11.9-24.31-20.19-32.86a103.9,103.9,0,0,0-28-20.74,122.58,122.58,0,0,0-32.22-10.88c-35-6.48-66-3-89,9.5a116.09,116.09,0,0,0-38.72,33.27A146.39,146.39,0,0,0,2359.8,284a193.65,193.65,0,0,0-7.56,52.87,182.28,182.28,0,0,0,8.72,56.31A146,146,0,0,0,2386,440.25a122,122,0,0,0,40,32.22c23.87,12.14,53.64,15.18,85.29,8.4a119,119,0,0,0,31.39-11.63,105.87,105.87,0,0,0,26.9-20.77,91.5,91.5,0,0,0,18.58-30.81l3.49-9.3,146.47,87.51-2.71,6.6c-9.25,22.54-23.43,43-42.15,60.89a265,265,0,0,1-63.33,44.5,334.9,334.9,0,0,1-75.66,27.21A349.5,349.5,0,0,1,2475.77,644.43Zm5-596.9c-46.09,0-87.6,8.39-123.36,24.94s-66.83,38.58-92,65.3a285.28,285.28,0,0,0-77.33,194.12,293.74,293.74,0,0,0,21,108,307.94,307.94,0,0,0,59.34,95.27,296.63,296.63,0,0,0,91.16,67.35c54.82,26.37,120.76,32.65,191,16.39a318.35,318.35,0,0,0,71.91-25.85,248.49,248.49,0,0,0,59.38-41.71,162,162,0,0,0,35.4-48.67L2599.91,432.6a103.91,103.91,0,0,1-18.2,27.24,122.45,122.45,0,0,1-31.13,24,135.43,135.43,0,0,1-35.77,13.24c-35.4,7.59-69,4-96.28-9.84a138.38,138.38,0,0,1-45.39-36.58,162.35,162.35,0,0,1-28-52.4,198.93,198.93,0,0,1-9.52-61.41,210.22,210.22,0,0,1,8.19-57.4,162.92,162.92,0,0,1,25.34-52.39,132.52,132.52,0,0,1,44.19-38c26.42-14.28,61.1-18.41,100-11.22a139.3,139.3,0,0,1,36.6,12.35,120.46,120.46,0,0,1,32.51,24A107.35,107.35,0,0,1,2602,242.91l109.14-77.64c-19.63-34.19-48.7-62.28-86.51-83.58C2584.37,59,2535.94,47.53,2480.74,47.53Z"/><path class="cls-1" d="M3124.07,639.46H2945.82V191.78h-170V34.26h517.31V191.78H3124.07ZM2962.4,622.88h145.08V175.2h169.12V50.84H2792.45V175.2h170Z"/><path class="cls-1" d="M3813,639.46H3376.92V34.26h428.61V191.78H3555.16V258.1H3769V405.67H3555.16v76.27H3813ZM3393.5,622.88h402.91V498.52H3538.58V389.09h213.89V274.68H3538.58V175.2h250.37V50.84H3393.5Z"/><path class="cls-1" d="M4147.9,639.46H3913.29V34.26H4147.9c49.48,0,93.79,8,131.69,23.85s70.15,37.74,95.7,65,45.08,59.57,58.14,96.15c13,36.41,19.55,75.7,19.55,116.78,0,45.59-7.3,87.46-21.7,124.46s-35.31,69.33-62,95.74-59.17,47.09-96.53,61.53S4193.48,639.46,4147.9,639.46Zm-218-16.58h218c43.53,0,83.53-6.93,118.88-20.58s65.78-33.08,90.84-57.85,44.61-55,58.21-90,20.57-74.92,20.57-118.44c0-39.18-6.25-76.6-18.58-111.21-12.29-34.42-30.66-64.82-54.62-90.38s-54.22-46.07-90-61-78-22.57-125.3-22.57h-218Zm218-124.35h-73V175.2h73c21.53,0,41.37,4,58.95,11.92a126.6,126.6,0,0,1,44.77,33.27c12,14,21.3,31.16,27.7,50.91,6.32,19.55,9.52,41.33,9.52,64.73,0,22.84-3.05,44.3-9.07,63.79-6.09,19.73-15.25,37.13-27.21,51.73a126.57,126.57,0,0,1-44.77,34.59C4190.19,494.36,4170,498.52,4147.9,498.52Zm-56.37-16.58h56.37c19.7,0,37.48-3.64,52.87-10.83a110.05,110.05,0,0,0,39-30.08c10.6-12.93,18.73-28.44,24.19-46.1,5.53-17.91,8.33-37.72,8.33-58.9,0-21.67-2.93-41.73-8.72-59.63-5.72-17.66-14-32.89-24.53-45.25a110.08,110.08,0,0,0-39-28.91c-15.43-6.94-33-10.46-52.15-10.46h-56.37Z"/><path class="cls-1" d="M4954.53,639.46H4776.28V34.26h262c29.85,0,57.85,6.28,83.22,18.67a216,216,0,0,1,65.08,48.28,226.06,226.06,0,0,1,42.6,68c10.31,25.47,15.53,51.48,15.53,77.31a224.09,224.09,0,0,1-55.54,146.84,196.65,196.65,0,0,1-64,47.61c-25,11.8-52.86,17.79-82.7,17.79h-87.88Zm-161.66-16.58h145.08V442.15h104.46c27.38,0,52.82-5.45,75.64-16.21a180.07,180.07,0,0,0,58.68-43.59,207.52,207.52,0,0,0,51.39-135.86c0-23.69-4.82-47.6-14.32-71.09a209.56,209.56,0,0,0-39.47-63,199.49,199.49,0,0,0-60.11-44.57c-23.08-11.27-48.63-17-75.94-17h-245.4Zm238.77-305.08h-93.69V175.2h89.54c12,0,23.88,5.17,35.35,15.36,11.91,10.59,17.71,28.89,17.71,55.94,0,26.2-4.94,44.19-15.1,55S5043.9,317.79,5031.63,317.79Zm-77.11-16.58h77.11c7.62,0,14.73-3.62,21.73-11.07s10.6-22.47,10.6-43.65c0-21.73-4.08-36.39-12.14-43.54-8.34-7.41-16.53-11.17-24.33-11.17h-73Z"/><path class="cls-1" d="M5865,639.46H5663.52L5559.89,458.73h-47.43V639.46H5334.21V34.26h278.56c29.85,0,57.85,6.28,83.22,18.67a216,216,0,0,1,65.08,48.28,226,226,0,0,1,42.6,68c10.31,25.47,15.53,51.48,15.53,77.31,0,35.43-7.83,68.91-23.27,99.49a204.43,204.43,0,0,1-58.7,71.09Zm-191.92-16.58h163.26l-121-210.5,6.15-4.36a187.91,187.91,0,0,0,59.57-69.51c14.26-28.25,21.49-59.2,21.49-92,0-23.69-4.82-47.6-14.31-71.09a209.65,209.65,0,0,0-39.48-63,199.59,199.59,0,0,0-60.11-44.57c-23.07-11.27-48.63-17-75.94-17h-262v572h145.08V442.15h73.62Zm-67-305.08H5495.87V175.2H5602c12.31,0,24.4,6.34,35.93,18.84,11.37,12.3,17.12,30,17.12,52.46,0,21.69-4.91,39-14.59,51.51C5630.28,311.13,5618.73,317.79,5606.14,317.79Zm-93.69-16.58h93.69c7.3,0,14.24-4.37,21.22-13.37,7.37-9.51,11.11-23.42,11.11-41.35,0-18.21-4.28-32.07-12.72-41.22-8.27-9-16.26-13.5-23.75-13.5h-89.54Z"/><path class="cls-1" d="M6201.38,644.43c-45.8,0-88-8.91-125.39-26.49s-69.64-40.85-96.23-69.42a315.64,315.64,0,0,1-62.14-98.33A305.9,305.9,0,0,1,5895.48,336a298.64,298.64,0,0,1,23-115.1,306.74,306.74,0,0,1,64.33-97.54c27.4-28,60.34-50.61,97.9-67.27s79.37-25.17,124-25.17c45.77,0,88,8.91,125.39,26.49,37.27,17.51,69.65,41,96.25,69.86a314.71,314.71,0,0,1,61.72,98.76,309.07,309.07,0,0,1,21.71,113.29,295.46,295.46,0,0,1-23,114.71,311.69,311.69,0,0,1-63.88,97.08c-27.12,28-59.91,50.75-97.46,67.69S6246,644.43,6201.38,644.43Zm3.32-596.9c-42.28,0-81.73,8-117.26,23.74s-66.85,37.25-92.77,63.72a290.06,290.06,0,0,0-60.86,92.3A282,282,0,0,0,5912.06,336a289.39,289.39,0,0,0,21,108,299,299,0,0,0,58.88,93.19c25.14,27,55.8,49.12,91.14,65.71,35.19,16.53,75,24.92,118.34,24.92,42.27,0,81.7-8.12,117.22-24.14s66.71-37.65,92.38-64.12a295.08,295.08,0,0,0,60.48-91.94,278.92,278.92,0,0,0,21.75-108.3,292.74,292.74,0,0,0-20.56-107.23,298.33,298.33,0,0,0-58.49-93.58c-25.14-27.26-55.79-49.5-91.1-66.09S6248,47.53,6204.7,47.53ZM6203,501c-24.47,0-46-4.78-64-14.21a134.14,134.14,0,0,1-44.58-37.11,159.37,159.37,0,0,1-26.24-52,209.29,209.29,0,0,1-8.64-60,215.92,215.92,0,0,1,8.19-59.06,158.08,158.08,0,0,1,25.82-52.47,132.41,132.41,0,0,1,44.63-37.58c18-9.43,39.51-14.21,64-14.21,23.86,0,45.06,4.63,63,13.75a136.73,136.73,0,0,1,45,36.18A151.16,151.16,0,0,1,6337,276a209.83,209.83,0,0,1,8.64,60,220.84,220.84,0,0,1-8.19,59.43,162.37,162.37,0,0,1-25.34,52.84,131.48,131.48,0,0,1-44.66,38.05C6249.2,496.08,6227.53,501,6203,501Zm-.83-310.06c-21.74,0-40.67,4.15-56.26,12.32a116,116,0,0,0-39.1,32.88,141.73,141.73,0,0,0-23.1,47,199.5,199.5,0,0,0-7.56,54.53,192.85,192.85,0,0,0,7.94,55.24,143,143,0,0,0,23.49,46.65,117.81,117.81,0,0,0,39.14,32.53c15.58,8.17,34.51,12.31,56.26,12.31s40.79-4.27,56.62-12.71a115,115,0,0,0,39.09-33.24A145.85,145.85,0,0,0,6321.49,391a204.57,204.57,0,0,0,7.57-55,193.31,193.31,0,0,0-7.94-55.25,134.85,134.85,0,0,0-23.8-46.09,120.34,120.34,0,0,0-39.58-31.79C6242.12,195,6223.44,190.95,6202.22,190.95Z"/><path class="cls-1" d="M6672.28,648.58c-51.24,0-95.78-12.76-132.37-37.94l-4.78-3.28,38.37-148.79,9.73,6.55a109.67,109.67,0,0,0,9.84,5.27,152.31,152.31,0,0,0,19.65,7.84,238.77,238.77,0,0,0,27.64,7.2,158.69,158.69,0,0,0,31.91,3.15c15.7,0,28.34-2.47,37.59-7.33,8.87-4.67,15.53-12.18,20.34-23,5.12-11.55,8.52-26.83,10.09-45.41,1.63-19.26,2.45-43.15,2.45-71V34.26H6921V341.83c0,45-2.53,86.47-7.54,123.4-5.11,37.78-16.4,70.57-33.56,97.44-17.37,27.23-43,48.63-76.11,63.61C6771.05,641.08,6726.81,648.58,6672.28,648.58ZM6554.1,600.17C6587,621.29,6626.7,632,6672.28,632c52.15,0,94.1-7,124.67-20.82,30.15-13.63,53.35-33,69-57.43,15.85-24.83,26.31-55.36,31.1-90.74,4.91-36.2,7.39-77,7.39-121.17v-291H6759.33v291c0,28.33-.85,52.69-2.52,72.41-1.72,20.41-5.58,37.49-11.46,50.74-6.3,14.14-15.64,24.54-27.76,30.92-11.65,6.13-26.89,9.24-45.31,9.24a175.61,175.61,0,0,1-35.24-3.49,255.5,255.5,0,0,1-29.57-7.72,165.29,165.29,0,0,1-21.82-8.74l-1.68-.85Z"/><path class="cls-1" d="M7476.43,639.46H7040.36V34.26H7469V191.78H7218.6V258.1h213.9V405.67H7218.6v76.27h257.83Zm-419.49-16.58h402.91V498.52H7202V389.09h213.9V274.68H7202V175.2h250.37V50.84H7056.94Z"/><path class="cls-1" d="M7839.55,644.43c-44.72,0-86.23-9.06-123.39-26.93a313.17,313.17,0,0,1-96.2-71.11A324.45,324.45,0,0,1,7557.42,446a310.35,310.35,0,0,1-22.13-114.13,301.93,301.93,0,0,1,81.83-205.48c26.59-28.28,59.25-51.49,97.07-69S7796,30.95,7844.52,30.95c58.09,0,109.25,12.21,152,36.3s75.42,56.69,96.53,96.62l3.4,6.42-138.15,98.28-3.84-10c-5.1-13.26-11.89-24.31-20.18-32.86a104,104,0,0,0-28-20.74,122.65,122.65,0,0,0-32.22-10.87c-35-6.48-66-3-89,9.5a116.31,116.31,0,0,0-38.72,33.28A146.39,146.39,0,0,0,7723.58,284a193.65,193.65,0,0,0-7.56,52.87,182.33,182.33,0,0,0,8.71,56.31,146,146,0,0,0,25.1,47.09,121.88,121.88,0,0,0,40,32.22c23.88,12.14,53.64,15.18,85.29,8.4a118.9,118.9,0,0,0,31.38-11.63,105.86,105.86,0,0,0,26.9-20.77A91.54,91.54,0,0,0,7952,417.68l3.49-9.29,146.46,87.51-2.71,6.61c-9.25,22.54-23.43,43-42.15,60.88a264.83,264.83,0,0,1-63.34,44.5,334.6,334.6,0,0,1-75.65,27.21A349.64,349.64,0,0,1,7839.55,644.43Zm5-596.9c-46.09,0-87.59,8.39-123.36,24.94s-66.82,38.57-92,65.3a285.28,285.28,0,0,0-77.33,194.12,293.74,293.74,0,0,0,21,108,307.82,307.82,0,0,0,59.34,95.27,296.56,296.56,0,0,0,91.15,67.35c54.81,26.37,120.74,32.64,191,16.39a318.26,318.26,0,0,0,71.91-25.85,248.26,248.26,0,0,0,59.37-41.71,162.22,162.22,0,0,0,35.4-48.67L7963.69,432.6a103.94,103.94,0,0,1-18.2,27.23,122.34,122.34,0,0,1-31.13,24,135.42,135.42,0,0,1-35.77,13.24c-35.41,7.59-69,4-96.28-9.84a138.39,138.39,0,0,1-45.39-36.58,162.58,162.58,0,0,1-28-52.4,198.86,198.86,0,0,1-9.52-61.41,210.06,210.06,0,0,1,8.19-57.4A163,163,0,0,1,7733,227.07a132.61,132.61,0,0,1,44.19-38c26.43-14.29,61.15-18.42,100-11.23a139.27,139.27,0,0,1,36.6,12.34,120.62,120.62,0,0,1,32.51,24,107.17,107.17,0,0,1,19.58,28.72l109.13-77.64c-19.63-34.19-48.7-62.28-86.51-83.57C7948.14,59,7899.72,47.53,7844.52,47.53Z"/><path class="cls-1" d="M8487.84,639.46H8309.6V191.78h-170V34.26H8657V191.78H8487.84Zm-161.66-16.58h145.08V175.2h169.13V50.84H8156.23V175.2h170Z"/><path class="cls-1" d="M8965.36,646.92a467.45,467.45,0,0,1-67.52-5.06,584.5,584.5,0,0,1-68.55-14.29,601.25,601.25,0,0,1-65.56-21.86A423.1,423.1,0,0,1,8705,576.95l-6.58-3.91,77.07-156.9,7.8,4.9a479.56,479.56,0,0,0,59.49,31.78,423.25,423.25,0,0,0,59.08,22,232.31,232.31,0,0,0,66,9.61c19.81,0,28.47-3.05,32.24-5.61,4.66-3.16,6.73-6.8,6.73-11.8,0-5.85-2.36-10.55-7.41-14.8-6.13-5.14-14.91-9.81-26.11-13.9-11.84-4.3-25.73-8.7-41.27-13.07-15.92-4.47-32.94-9.82-50.61-15.9-26.29-8.93-49.32-18.75-68.43-29.16-19.5-10.6-35.82-22.86-48.51-36.44a133,133,0,0,1-28.71-47.28c-6.09-17.38-9.17-37.55-9.17-59.94,0-33.73,6.27-63.94,18.63-89.8a186,186,0,0,1,50.76-65,226.2,226.2,0,0,1,72.69-39.16,276.44,276.44,0,0,1,85.9-13.26,326.2,326.2,0,0,1,64.65,6.38,516.3,516.3,0,0,1,60.25,16,580.68,580.68,0,0,1,54.25,21c16.74,7.54,31.91,14.7,45.08,21.29l7.55,3.78-77.62,148.75L9101.2,242a447.15,447.15,0,0,0-50.45-26,465.36,465.36,0,0,0-49.31-18.34,173.69,173.69,0,0,0-51.82-8.32c-13,0-23.26,1.92-30.59,5.71-5.79,3-8.37,7.62-8.37,15,0,5.57,1.6,9.77,5,13.2,4.22,4.23,10.62,8.25,19,12a262,262,0,0,0,33.34,11.63c13.46,3.86,29,8.62,46.28,14.18a613.53,613.53,0,0,1,74.26,27.7c22.45,10.23,42,22.52,58,36.54a144.72,144.72,0,0,1,37.81,52.3c8.7,20.3,13.11,45.11,13.11,73.73,0,36.59-6.89,67.9-20.48,93.06s-31.74,45.49-54,60.55c-22,14.87-47.2,25.74-74.86,32.29A359.82,359.82,0,0,1,8965.36,646.92ZM8720,566.53a413.07,413.07,0,0,0,49.84,23.78,585,585,0,0,0,63.76,21.26,568.82,568.82,0,0,0,66.6,13.89,451.16,451.16,0,0,0,65.12,4.89,343.11,343.11,0,0,0,78.92-9.31c25.7-6.09,49-16.14,69.4-29.89,20.06-13.55,36.46-32,48.74-54.69s18.49-51.38,18.49-85.18c0-26.37-4-49-11.76-67.2a128.3,128.3,0,0,0-33.49-46.35c-14.81-12.95-33-24.36-53.94-33.92a598.61,598.61,0,0,0-72.36-27c-17.18-5.53-32.58-10.25-45.86-14A278.31,278.31,0,0,1,8928,250.35c-10.44-4.61-18.31-9.64-24.07-15.4-6.57-6.57-9.89-15-9.89-24.93,0-13.61,6-23.9,17.34-29.75,9.72-5,22.57-7.55,38.21-7.55a190.1,190.1,0,0,1,56.78,9.08,482.24,482.24,0,0,1,51.05,19,465.67,465.67,0,0,1,44.71,22.55l61.69-118.24c-11.12-5.43-23.49-11.22-36.9-17.26-16.2-7.29-33.93-14.16-52.69-20.42a500.23,500.23,0,0,0-58.3-15.49,309.68,309.68,0,0,0-61.36-6.05,259.83,259.83,0,0,0-80.75,12.44,209.6,209.6,0,0,0-67.4,36.27,169.53,169.53,0,0,0-46.24,59.32c-11.29,23.6-17,51.41-17,82.64,0,20.53,2.77,38.85,8.23,54.46a116.51,116.51,0,0,0,25.17,41.42c11.49,12.28,26.4,23.45,44.33,33.21,18.29,10,40.45,19.39,65.87,28,17.39,6,34.11,11.24,49.73,15.62,15.93,4.48,30.21,9,42.46,13.45,13.2,4.82,23.37,10.3,31.1,16.77,8.85,7.44,13.33,16.69,13.33,27.5,0,10.47-4.84,19.29-14,25.51-8.4,5.7-22,8.48-41.55,8.48a249.08,249.08,0,0,1-70.75-10.29,439.57,439.57,0,0,1-61.27-22.83,496.87,496.87,0,0,1-53.58-28Z"/></svg>